# MagicaVoxel @ Ephtracy

# material
mtllib fusebox.mtl
usemtl palette

# normals
vn -1 0 0
vn 1 0 0
vn 0 0 1
vn 0 0 -1
vn 0 -1 0
vn 0 1 0

# texcoords
vt 0.0214844 0.5
vt 0.955078 0.5
vt 0.974609 0.5

# verts
v -20 6 5
v -20 6 -11
v -20 46 5
v -20 46 -11
v -12 17 -8
v -12 17 -9
v -12 18 -8
v -12 18 -9
v -12 28 -9
v -12 28 -10
v -12 31 -9
v -12 31 -10
v -11 18 -4
v -11 18 -5
v -11 21 -4
v -11 21 -5
v -11 31 -5
v -11 31 -6
v -11 34 -5
v -11 34 -6
v -10 21 -0
v -10 21 -1
v -10 24 -0
v -10 24 -1
v -10 34 -1
v -10 34 -2
v -10 35 -1
v -10 35 -2
v -5 37 4
v -5 37 3
v -5 38 4
v -5 38 3
v -4 38 -2
v -4 38 -3
v -4 39 -2
v -4 39 -3
v 4 35 4
v 4 35 -2
v 4 36 -2
v 4 36 -9
v 4 37 4
v 4 37 3
v 4 38 3
v 4 38 -3
v 4 38 -8
v 4 38 -9
v 4 39 -3
v 4 39 -8
v -13 17 -8
v -13 17 -9
v -13 18 -8
v -13 18 -9
v -13 28 -9
v -13 28 -10
v -13 31 -9
v -13 31 -10
v -12 18 -4
v -12 18 -5
v -12 21 -4
v -12 21 -5
v -12 31 -5
v -12 31 -6
v -12 34 -5
v -12 34 -6
v -11 21 -0
v -11 21 -1
v -11 24 -0
v -11 24 -1
v -11 34 -1
v -11 34 -2
v -11 36 -2
v -11 36 -8
v -11 37 -1
v -11 37 -2
v -11 39 -2
v -11 39 -8
v -10 36 1
v -10 36 -1
v -10 37 -1
v -10 37 -2
v -10 38 1
v -10 38 -2
v -9 35 1
v -9 35 -1
v -9 36 1
v -9 36 -1
v -8 35 4
v -8 35 1
v -8 38 4
v -8 38 1
v -3 36 -8
v -3 36 -9
v -3 37 -8
v -3 37 -9
v 3 37 -8
v 3 37 -9
v 3 38 -8
v 3 38 -9
v 16 6 5
v 16 6 -11
v 16 46 5
v 16 46 -11
v -20 6 5
v -20 46 5
v -9 16 5
v -9 19 5
v -9 26 5
v -9 29 5
v -8 17 5
v -8 19 5
v -8 22 5
v -8 27 5
v -8 29 5
v -8 31 5
v -7 19 5
v -7 22 5
v -7 24 5
v -7 29 5
v -7 31 5
v -7 33 5
v -6 16 5
v -6 17 5
v -6 18 5
v -6 22 5
v -6 24 5
v -6 26 5
v -6 31 5
v -6 33 5
v -6 35 5
v -5 17 5
v -5 18 5
v -5 19 5
v -5 24 5
v -5 26 5
v -5 33 5
v -5 34 5
v -4 18 5
v -4 19 5
v -4 20 5
v -4 26 5
v -4 27 5
v -3 19 5
v -3 20 5
v -3 21 5
v -2 20 5
v -2 21 5
v -2 22 5
v -1 21 5
v -1 22 5
v -1 23 5
v 0 22 5
v 0 23 5
v 0 24 5
v 1 23 5
v 1 24 5
v 1 25 5
v 1 29 5
v 1 30 5
v 2 24 5
v 2 25 5
v 2 26 5
v 2 30 5
v 2 31 5
v 3 25 5
v 3 26 5
v 3 27 5
v 3 30 5
v 3 31 5
v 3 32 5
v 4 26 5
v 4 27 5
v 4 29 5
v 4 31 5
v 4 32 5
v 4 34 5
v 5 27 5
v 5 30 5
v 5 32 5
v 5 35 5
v 16 6 5
v 16 46 5
v -11 21 -1
v -11 24 -1
v -10 21 -1
v -10 24 -1
v -11 34 -2
v -11 36 -2
v -10 34 -2
v -10 35 -2
v 4 35 -2
v 4 36 -2
v -12 18 -5
v -12 21 -5
v -11 18 -5
v -11 21 -5
v -12 31 -6
v -12 34 -6
v -11 31 -6
v -11 34 -6
v -11 36 -8
v -11 39 -8
v -3 36 -8
v -3 37 -8
v 3 37 -8
v 3 38 -8
v 4 38 -8
v 4 39 -8
v -13 17 -9
v -13 18 -9
v -12 17 -9
v -12 18 -9
v -3 36 -9
v -3 37 -9
v 3 37 -9
v 3 38 -9
v 4 36 -9
v 4 38 -9
v -13 28 -10
v -13 31 -10
v -12 28 -10
v -12 31 -10
v -8 35 4
v -8 38 4
v -5 37 4
v -5 38 4
v 4 35 4
v 4 37 4
v -5 37 3
v -5 38 3
v 4 37 3
v 4 38 3
v -10 36 1
v -10 38 1
v -9 35 1
v -9 36 1
v -8 35 1
v -8 38 1
v -11 21 -0
v -11 24 -0
v -10 21 -0
v -10 24 -0
v -11 34 -1
v -11 37 -1
v -10 34 -1
v -10 35 -1
v -10 36 -1
v -10 37 -1
v -9 35 -1
v -9 36 -1
v -11 37 -2
v -11 39 -2
v -10 37 -2
v -10 38 -2
v -4 38 -2
v -4 39 -2
v -4 38 -3
v -4 39 -3
v 4 38 -3
v 4 39 -3
v -12 18 -4
v -12 21 -4
v -11 18 -4
v -11 21 -4
v -12 31 -5
v -12 34 -5
v -11 31 -5
v -11 34 -5
v -13 17 -8
v -13 18 -8
v -12 17 -8
v -12 18 -8
v -13 28 -9
v -13 31 -9
v -12 28 -9
v -12 31 -9
v -20 6 -11
v -20 46 -11
v 16 6 -11
v 16 46 -11
v -20 6 5
v 16 6 5
v -20 6 -11
v 16 6 -11
v -13 18 -8
v -12 18 -8
v -13 18 -9
v -12 18 -9
v -12 21 -4
v -11 21 -4
v -12 21 -5
v -11 21 -5
v -11 24 -0
v -10 24 -0
v -11 24 -1
v -10 24 -1
v -13 31 -9
v -12 31 -9
v -13 31 -10
v -12 31 -10
v -12 34 -5
v -11 34 -5
v -12 34 -6
v -11 34 -6
v -5 37 4
v 4 37 4
v -5 37 3
v 4 37 3
v -11 37 -1
v -10 37 -1
v -11 37 -2
v -10 37 -2
v -3 37 -8
v 3 37 -8
v -3 37 -9
v 3 37 -9
v -8 38 4
v -5 38 4
v -5 38 3
v 4 38 3
v -10 38 1
v -8 38 1
v -10 38 -2
v -4 38 -2
v -4 38 -3
v 4 38 -3
v 3 38 -8
v 4 38 -8
v 3 38 -9
v 4 38 -9
v -11 39 -2
v -4 39 -2
v -4 39 -3
v 4 39 -3
v -11 39 -8
v 4 39 -8
v -13 17 -8
v -12 17 -8
v -13 17 -9
v -12 17 -9
v -12 18 -4
v -11 18 -4
v -12 18 -5
v -11 18 -5
v -11 21 -0
v -10 21 -0
v -11 21 -1
v -10 21 -1
v -13 28 -9
v -12 28 -9
v -13 28 -10
v -12 28 -10
v -12 31 -5
v -11 31 -5
v -12 31 -6
v -11 31 -6
v -11 34 -1
v -10 34 -1
v -11 34 -2
v -10 34 -2
v -8 35 4
v 4 35 4
v -9 35 1
v -8 35 1
v -10 35 -1
v -9 35 -1
v -10 35 -2
v 4 35 -2
v -10 36 1
v -9 36 1
v -10 36 -1
v -9 36 -1
v -11 36 -2
v 4 36 -2
v -11 36 -8
v -3 36 -8
v -3 36 -9
v 4 36 -9
v -20 46 5
v 16 46 5
v -20 46 -11
v 16 46 -11

# faces
f 3/3/1 2/3/1 1/3/1
f 4/3/1 2/3/1 3/3/1
f 7/3/1 6/3/1 5/3/1
f 8/3/1 6/3/1 7/3/1
f 11/3/1 10/3/1 9/3/1
f 12/3/1 10/3/1 11/3/1
f 15/3/1 14/3/1 13/3/1
f 16/3/1 14/3/1 15/3/1
f 19/3/1 18/3/1 17/3/1
f 20/3/1 18/3/1 19/3/1
f 23/3/1 22/3/1 21/3/1
f 24/3/1 22/3/1 23/3/1
f 27/3/1 26/3/1 25/3/1
f 28/3/1 26/3/1 27/3/1
f 31/3/1 30/3/1 29/3/1
f 32/3/1 30/3/1 31/3/1
f 35/3/1 34/3/1 33/3/1
f 36/3/1 34/3/1 35/3/1
f 39/3/1 38/3/1 37/3/1
f 41/3/1 39/3/1 37/3/1
f 41/3/1 40/3/1 39/3/1
f 42/3/1 40/3/1 41/3/1
f 43/3/1 40/3/1 42/3/1
f 44/3/1 40/3/1 43/3/1
f 45/3/1 40/3/1 44/3/1
f 46/3/1 40/3/1 45/3/1
f 47/3/1 45/3/1 44/3/1
f 48/3/1 45/3/1 47/3/1
f 49/3/2 50/3/2 51/3/2
f 51/3/2 50/3/2 52/3/2
f 53/3/2 54/3/2 55/3/2
f 55/3/2 54/3/2 56/3/2
f 57/3/2 58/3/2 59/3/2
f 59/3/2 58/3/2 60/3/2
f 61/3/2 62/3/2 63/3/2
f 63/3/2 62/3/2 64/3/2
f 65/3/2 66/3/2 67/3/2
f 67/3/2 66/3/2 68/3/2
f 69/3/2 70/3/2 71/3/2
f 69/3/2 71/3/2 73/3/2
f 71/3/2 72/3/2 73/3/2
f 73/3/2 72/3/2 74/3/2
f 74/3/2 72/3/2 75/3/2
f 75/3/2 72/3/2 76/3/2
f 77/3/2 78/3/2 79/3/2
f 77/3/2 79/3/2 81/3/2
f 79/3/2 80/3/2 81/3/2
f 81/3/2 80/3/2 82/3/2
f 83/3/2 84/3/2 85/3/2
f 85/3/2 84/3/2 86/3/2
f 87/3/2 88/3/2 89/3/2
f 89/3/2 88/3/2 90/3/2
f 91/3/2 92/3/2 93/3/2
f 93/3/2 92/3/2 94/3/2
f 95/3/2 96/3/2 97/3/2
f 97/3/2 96/3/2 98/3/2
f 99/3/2 100/3/2 101/3/2
f 101/3/2 100/3/2 102/3/2
f 105/3/3 104/3/3 103/3/3
f 106/3/3 104/3/3 105/3/3
f 107/3/3 104/3/3 106/3/3
f 108/3/3 104/3/3 107/3/3
f 109/2/3 106/2/3 105/2/3
f 110/3/3 107/3/3 106/3/3
f 110/2/3 106/2/3 109/2/3
f 111/3/3 107/3/3 110/3/3
f 112/2/3 108/2/3 107/2/3
f 113/3/3 104/3/3 108/3/3
f 113/2/3 108/2/3 112/2/3
f 114/3/3 104/3/3 113/3/3
f 115/1/3 110/1/3 109/1/3
f 115/2/3 111/2/3 110/2/3
f 116/3/3 107/3/3 111/3/3
f 116/2/3 111/2/3 115/2/3
f 117/3/3 107/3/3 116/3/3
f 118/2/3 114/2/3 113/2/3
f 118/1/3 113/1/3 112/1/3
f 119/3/3 104/3/3 114/3/3
f 119/2/3 114/2/3 118/2/3
f 120/3/3 104/3/3 119/3/3
f 121/3/3 105/3/3 103/3/3
f 121/2/3 109/2/3 105/2/3
f 122/1/3 115/1/3 109/1/3
f 122/2/3 109/2/3 121/2/3
f 122/1/3 116/1/3 115/1/3
f 123/1/3 116/1/3 122/1/3
f 124/2/3 117/2/3 116/2/3
f 124/1/3 116/1/3 123/1/3
f 125/3/3 107/3/3 117/3/3
f 125/2/3 117/2/3 124/2/3
f 126/2/3 112/2/3 107/2/3
f 126/3/3 107/3/3 125/3/3
f 127/2/3 120/2/3 119/2/3
f 127/1/3 119/1/3 118/1/3
f 128/3/3 104/3/3 120/3/3
f 128/2/3 120/2/3 127/2/3
f 129/3/3 104/3/3 128/3/3
f 130/2/3 123/2/3 122/2/3
f 130/3/3 122/3/3 121/3/3
f 131/1/3 125/1/3 124/1/3
f 131/2/3 123/2/3 130/2/3
f 131/1/3 124/1/3 123/1/3
f 132/1/3 125/1/3 131/1/3
f 133/2/3 126/2/3 125/2/3
f 133/1/3 125/1/3 132/1/3
f 134/2/3 112/2/3 126/2/3
f 134/2/3 126/2/3 133/2/3
f 135/1/3 128/1/3 127/1/3
f 135/2/3 129/2/3 128/2/3
f 136/2/3 129/2/3 135/2/3
f 137/2/3 132/2/3 131/2/3
f 137/3/3 131/3/3 130/3/3
f 138/1/3 133/1/3 132/1/3
f 138/2/3 132/2/3 137/2/3
f 138/1/3 134/1/3 133/1/3
f 139/1/3 134/1/3 138/1/3
f 140/2/3 112/2/3 134/2/3
f 140/1/3 134/1/3 139/1/3
f 141/1/3 127/1/3 118/1/3
f 141/2/3 112/2/3 140/2/3
f 141/1/3 118/1/3 112/1/3
f 141/1/3 135/1/3 127/1/3
f 141/1/3 136/1/3 135/1/3
f 142/3/3 138/3/3 137/3/3
f 142/2/3 139/2/3 138/2/3
f 143/1/3 140/1/3 139/1/3
f 143/2/3 139/2/3 142/2/3
f 143/1/3 141/1/3 140/1/3
f 144/1/3 141/1/3 143/1/3
f 145/3/3 143/3/3 142/3/3
f 145/2/3 144/2/3 143/2/3
f 146/1/3 141/1/3 144/1/3
f 146/2/3 144/2/3 145/2/3
f 147/1/3 141/1/3 146/1/3
f 148/3/3 146/3/3 145/3/3
f 148/2/3 147/2/3 146/2/3
f 149/1/3 141/1/3 147/1/3
f 149/2/3 147/2/3 148/2/3
f 150/1/3 141/1/3 149/1/3
f 151/3/3 149/3/3 148/3/3
f 151/2/3 150/2/3 149/2/3
f 152/1/3 141/1/3 150/1/3
f 152/2/3 150/2/3 151/2/3
f 153/1/3 141/1/3 152/1/3
f 154/3/3 152/3/3 151/3/3
f 154/2/3 153/2/3 152/2/3
f 155/1/3 141/1/3 153/1/3
f 155/2/3 153/2/3 154/2/3
f 156/1/3 141/1/3 155/1/3
f 157/1/3 136/1/3 141/1/3
f 157/1/3 141/1/3 156/1/3
f 158/1/3 136/1/3 157/1/3
f 159/2/3 156/2/3 155/2/3
f 159/3/3 155/3/3 154/3/3
f 160/1/3 157/1/3 156/1/3
f 160/2/3 156/2/3 159/2/3
f 161/1/3 157/1/3 160/1/3
f 162/1/3 136/1/3 158/1/3
f 162/2/3 158/2/3 157/2/3
f 163/1/3 136/1/3 162/1/3
f 164/2/3 161/2/3 160/2/3
f 164/3/3 160/3/3 159/3/3
f 165/1/3 157/1/3 161/1/3
f 165/2/3 161/2/3 164/2/3
f 166/1/3 157/1/3 165/1/3
f 167/2/3 163/2/3 162/2/3
f 167/2/3 162/2/3 157/2/3
f 168/1/3 136/1/3 163/1/3
f 168/2/3 163/2/3 167/2/3
f 169/1/3 136/1/3 168/1/3
f 170/2/3 166/2/3 165/2/3
f 170/3/3 165/3/3 164/3/3
f 171/1/3 157/1/3 166/1/3
f 171/2/3 166/2/3 170/2/3
f 172/2/3 167/2/3 157/2/3
f 172/1/3 157/1/3 171/1/3
f 173/2/3 169/2/3 168/2/3
f 173/3/3 168/3/3 167/3/3
f 174/1/3 136/1/3 169/1/3
f 174/2/3 169/2/3 173/2/3
f 175/2/3 129/2/3 136/2/3
f 175/1/3 136/1/3 174/1/3
f 176/3/3 171/3/3 170/3/3
f 176/2/3 172/2/3 171/2/3
f 177/3/3 174/3/3 173/3/3
f 177/2/3 172/2/3 176/2/3
f 177/3/3 173/3/3 167/3/3
f 177/2/3 167/2/3 172/2/3
f 178/2/3 175/2/3 174/2/3
f 178/3/3 174/3/3 177/3/3
f 179/3/3 104/3/3 129/3/3
f 179/2/3 175/2/3 178/2/3
f 179/2/3 129/2/3 175/2/3
f 180/3/3 142/3/3 137/3/3
f 180/3/3 130/3/3 121/3/3
f 180/3/3 179/3/3 178/3/3
f 180/3/3 170/3/3 164/3/3
f 180/3/3 159/3/3 154/3/3
f 180/3/3 177/3/3 176/3/3
f 180/3/3 154/3/3 151/3/3
f 180/3/3 151/3/3 148/3/3
f 180/3/3 148/3/3 145/3/3
f 180/3/3 145/3/3 142/3/3
f 180/3/3 178/3/3 177/3/3
f 180/3/3 176/3/3 170/3/3
f 180/3/3 164/3/3 159/3/3
f 180/3/3 121/3/3 103/3/3
f 180/3/3 137/3/3 130/3/3
f 181/3/3 104/3/3 179/3/3
f 181/3/3 179/3/3 180/3/3
f 184/3/3 183/3/3 182/3/3
f 185/3/3 183/3/3 184/3/3
f 188/3/3 187/3/3 186/3/3
f 189/3/3 187/3/3 188/3/3
f 190/3/3 187/3/3 189/3/3
f 191/3/3 187/3/3 190/3/3
f 194/3/3 193/3/3 192/3/3
f 195/3/3 193/3/3 194/3/3
f 198/3/3 197/3/3 196/3/3
f 199/3/3 197/3/3 198/3/3
f 202/3/3 201/3/3 200/3/3
f 203/3/3 201/3/3 202/3/3
f 204/3/3 201/3/3 203/3/3
f 205/3/3 201/3/3 204/3/3
f 206/3/3 201/3/3 205/3/3
f 207/3/3 201/3/3 206/3/3
f 210/3/3 209/3/3 208/3/3
f 211/3/3 209/3/3 210/3/3
f 214/3/3 213/3/3 212/3/3
f 216/3/3 214/3/3 212/3/3
f 216/3/3 215/3/3 214/3/3
f 217/3/3 215/3/3 216/3/3
f 220/3/3 219/3/3 218/3/3
f 221/3/3 219/3/3 220/3/3
f 222/3/4 223/3/4 224/3/4
f 224/3/4 223/3/4 225/3/4
f 222/3/4 224/3/4 226/3/4
f 226/3/4 224/3/4 227/3/4
f 228/3/4 229/3/4 230/3/4
f 230/3/4 229/3/4 231/3/4
f 232/3/4 233/3/4 235/3/4
f 234/3/4 235/3/4 236/3/4
f 235/3/4 233/3/4 237/3/4
f 236/3/4 235/3/4 237/3/4
f 238/3/4 239/3/4 240/3/4
f 240/3/4 239/3/4 241/3/4
f 242/3/4 243/3/4 244/3/4
f 244/3/4 243/3/4 245/3/4
f 245/3/4 243/3/4 246/3/4
f 246/3/4 243/3/4 247/3/4
f 245/3/4 246/3/4 248/3/4
f 248/3/4 246/3/4 249/3/4
f 250/3/4 251/3/4 252/3/4
f 252/3/4 251/3/4 253/3/4
f 253/3/4 251/3/4 254/3/4
f 254/3/4 251/3/4 255/3/4
f 256/3/4 257/3/4 258/3/4
f 258/3/4 257/3/4 259/3/4
f 260/3/4 261/3/4 262/3/4
f 262/3/4 261/3/4 263/3/4
f 264/3/4 265/3/4 266/3/4
f 266/3/4 265/3/4 267/3/4
f 268/3/4 269/3/4 270/3/4
f 270/3/4 269/3/4 271/3/4
f 272/3/4 273/3/4 274/3/4
f 274/3/4 273/3/4 275/3/4
f 276/3/4 277/3/4 278/3/4
f 278/3/4 277/3/4 279/3/4
f 282/3/5 281/3/5 280/3/5
f 283/3/5 281/3/5 282/3/5
f 286/3/5 285/3/5 284/3/5
f 287/3/5 285/3/5 286/3/5
f 290/3/5 289/3/5 288/3/5
f 291/3/5 289/3/5 290/3/5
f 294/3/5 293/3/5 292/3/5
f 295/3/5 293/3/5 294/3/5
f 298/3/5 297/3/5 296/3/5
f 299/3/5 297/3/5 298/3/5
f 302/3/5 301/3/5 300/3/5
f 303/3/5 301/3/5 302/3/5
f 306/3/5 305/3/5 304/3/5
f 307/3/5 305/3/5 306/3/5
f 310/3/5 309/3/5 308/3/5
f 311/3/5 309/3/5 310/3/5
f 314/3/5 313/3/5 312/3/5
f 315/3/5 313/3/5 314/3/5
f 318/3/5 317/3/5 316/3/5
f 321/3/5 318/3/5 316/3/5
f 321/3/5 319/3/5 318/3/5
f 322/3/5 321/3/5 320/3/5
f 323/3/5 319/3/5 321/3/5
f 323/3/5 321/3/5 322/3/5
f 324/3/5 319/3/5 323/3/5
f 325/3/5 319/3/5 324/3/5
f 328/3/5 327/3/5 326/3/5
f 329/3/5 327/3/5 328/3/5
f 332/3/5 331/3/5 330/3/5
f 334/3/5 332/3/5 330/3/5
f 334/3/5 333/3/5 332/3/5
f 335/3/5 333/3/5 334/3/5
f 336/3/6 337/3/6 338/3/6
f 338/3/6 337/3/6 339/3/6
f 340/3/6 341/3/6 342/3/6
f 342/3/6 341/3/6 343/3/6
f 344/3/6 345/3/6 346/3/6
f 346/3/6 345/3/6 347/3/6
f 348/3/6 349/3/6 350/3/6
f 350/3/6 349/3/6 351/3/6
f 352/3/6 353/3/6 354/3/6
f 354/3/6 353/3/6 355/3/6
f 356/3/6 357/3/6 358/3/6
f 358/3/6 357/3/6 359/3/6
f 360/3/6 361/3/6 363/3/6
f 362/3/6 363/3/6 365/3/6
f 364/3/6 365/3/6 366/3/6
f 363/3/6 361/3/6 367/3/6
f 366/3/6 365/3/6 367/3/6
f 365/3/6 363/3/6 367/3/6
f 368/3/6 369/3/6 370/3/6
f 370/3/6 369/3/6 371/3/6
f 372/3/6 373/3/6 374/3/6
f 374/3/6 373/3/6 375/3/6
f 375/3/6 373/3/6 376/3/6
f 376/3/6 373/3/6 377/3/6
f 378/3/6 379/3/6 380/3/6
f 380/3/6 379/3/6 381/3/6
