# MagicaVoxel @ Ephtracy

# material
mtllib cube.mtl
usemtl palette

# normals
vn -1 0 0
vn 1 0 0
vn 0 0 1
vn 0 0 -1
vn 0 -1 0
vn 0 1 0

# texcoords
vt 0.966797 0.5
vt 0.970703 0.5
vt 0.978516 0.5
vt 0.982422 0.5
vt 0.994141 0.5

# verts
v -20 0 20
v -20 0 18
v -20 0 16
v -20 0 14
v -20 0 -14
v -20 0 -16
v -20 0 -18
v -20 0 -20
v -20 2 20
v -20 2 18
v -20 2 14
v -20 2 -14
v -20 2 -18
v -20 2 -20
v -20 4 20
v -20 4 16
v -20 4 -16
v -20 4 -20
v -20 6 20
v -20 6 18
v -20 6 14
v -20 6 -14
v -20 6 -18
v -20 6 -20
v -20 34 20
v -20 34 18
v -20 34 14
v -20 34 -14
v -20 34 -18
v -20 34 -20
v -20 36 20
v -20 36 16
v -20 36 -16
v -20 36 -20
v -20 38 20
v -20 38 18
v -20 38 14
v -20 38 -14
v -20 38 -18
v -20 38 -20
v -20 40 20
v -20 40 18
v -20 40 16
v -20 40 14
v -20 40 -14
v -20 40 -16
v -20 40 -18
v -20 40 -20
v 20 0 20
v 20 0 18
v 20 0 16
v 20 0 14
v 20 0 -14
v 20 0 -16
v 20 0 -18
v 20 0 -20
v 20 2 20
v 20 2 18
v 20 2 14
v 20 2 -14
v 20 2 -18
v 20 2 -20
v 20 4 20
v 20 4 16
v 20 4 -16
v 20 4 -20
v 20 6 20
v 20 6 18
v 20 6 14
v 20 6 -14
v 20 6 -18
v 20 6 -20
v 20 34 20
v 20 34 18
v 20 34 14
v 20 34 -14
v 20 34 -18
v 20 34 -20
v 20 36 20
v 20 36 16
v 20 36 -16
v 20 36 -20
v 20 38 20
v 20 38 18
v 20 38 14
v 20 38 -14
v 20 38 -18
v 20 38 -20
v 20 40 20
v 20 40 18
v 20 40 16
v 20 40 14
v 20 40 -14
v 20 40 -16
v 20 40 -18
v 20 40 -20
v -20 0 20
v -20 2 20
v -20 4 20
v -20 6 20
v -20 34 20
v -20 36 20
v -20 38 20
v -20 40 20
v -18 0 20
v -18 2 20
v -18 6 20
v -18 34 20
v -18 38 20
v -18 40 20
v -16 0 20
v -16 4 20
v -16 36 20
v -16 40 20
v -14 0 20
v -14 2 20
v -14 6 20
v -14 34 20
v -14 38 20
v -14 40 20
v 14 0 20
v 14 2 20
v 14 6 20
v 14 34 20
v 14 38 20
v 14 40 20
v 16 0 20
v 16 4 20
v 16 36 20
v 16 40 20
v 18 0 20
v 18 2 20
v 18 6 20
v 18 34 20
v 18 38 20
v 18 40 20
v 20 0 20
v 20 2 20
v 20 4 20
v 20 6 20
v 20 34 20
v 20 36 20
v 20 38 20
v 20 40 20
v -20 0 -20
v -20 2 -20
v -20 4 -20
v -20 6 -20
v -20 34 -20
v -20 36 -20
v -20 38 -20
v -20 40 -20
v -18 0 -20
v -18 2 -20
v -18 6 -20
v -18 34 -20
v -18 38 -20
v -18 40 -20
v -16 0 -20
v -16 4 -20
v -16 36 -20
v -16 40 -20
v -14 0 -20
v -14 2 -20
v -14 6 -20
v -14 34 -20
v -14 38 -20
v -14 40 -20
v 14 0 -20
v 14 2 -20
v 14 6 -20
v 14 34 -20
v 14 38 -20
v 14 40 -20
v 16 0 -20
v 16 4 -20
v 16 36 -20
v 16 40 -20
v 18 0 -20
v 18 2 -20
v 18 6 -20
v 18 34 -20
v 18 38 -20
v 18 40 -20
v 20 0 -20
v 20 2 -20
v 20 4 -20
v 20 6 -20
v 20 34 -20
v 20 36 -20
v 20 38 -20
v 20 40 -20
v -20 0 20
v -18 0 20
v -16 0 20
v -14 0 20
v 14 0 20
v 16 0 20
v 18 0 20
v 20 0 20
v -20 0 18
v -18 0 18
v -14 0 18
v 14 0 18
v 18 0 18
v 20 0 18
v -20 0 16
v -16 0 16
v 16 0 16
v 20 0 16
v -20 0 14
v -18 0 14
v -14 0 14
v 14 0 14
v 18 0 14
v 20 0 14
v -20 0 -14
v -18 0 -14
v -14 0 -14
v 14 0 -14
v 18 0 -14
v 20 0 -14
v -20 0 -16
v -16 0 -16
v 16 0 -16
v 20 0 -16
v -20 0 -18
v -18 0 -18
v -14 0 -18
v 14 0 -18
v 18 0 -18
v 20 0 -18
v -20 0 -20
v -18 0 -20
v -16 0 -20
v -14 0 -20
v 14 0 -20
v 16 0 -20
v 18 0 -20
v 20 0 -20
v -20 40 20
v -18 40 20
v -16 40 20
v -14 40 20
v 14 40 20
v 16 40 20
v 18 40 20
v 20 40 20
v -20 40 18
v -18 40 18
v -14 40 18
v 14 40 18
v 18 40 18
v 20 40 18
v -20 40 16
v -16 40 16
v 16 40 16
v 20 40 16
v -20 40 14
v -18 40 14
v -14 40 14
v 14 40 14
v 18 40 14
v 20 40 14
v -20 40 -14
v -18 40 -14
v -14 40 -14
v 14 40 -14
v 18 40 -14
v 20 40 -14
v -20 40 -16
v -16 40 -16
v 16 40 -16
v 20 40 -16
v -20 40 -18
v -18 40 -18
v -14 40 -18
v 14 40 -18
v 18 40 -18
v 20 40 -18
v -20 40 -20
v -18 40 -20
v -16 40 -20
v -14 40 -20
v 14 40 -20
v 16 40 -20
v 18 40 -20
v 20 40 -20

# faces
f 9/4/1 2/4/1 1/4/1
f 10/1/1 3/1/1 2/1/1
f 10/4/1 2/4/1 9/4/1
f 11/5/1 4/5/1 3/5/1
f 11/2/1 5/2/1 4/2/1
f 12/5/1 6/5/1 5/5/1
f 12/2/1 5/2/1 11/2/1
f 13/4/1 8/4/1 7/4/1
f 13/1/1 7/1/1 6/1/1
f 14/4/1 8/4/1 13/4/1
f 15/1/1 10/1/1 9/1/1
f 16/1/1 3/1/1 10/1/1
f 16/1/1 10/1/1 15/1/1
f 16/5/1 11/5/1 3/5/1
f 17/5/1 6/5/1 12/5/1
f 17/1/1 14/1/1 13/1/1
f 17/1/1 13/1/1 6/1/1
f 18/1/1 14/1/1 17/1/1
f 19/5/1 16/5/1 15/5/1
f 20/5/1 16/5/1 19/5/1
f 21/5/1 11/5/1 16/5/1
f 21/5/1 16/5/1 20/5/1
f 21/4/1 12/4/1 11/4/1
f 22/5/1 17/5/1 12/5/1
f 22/4/1 12/4/1 21/4/1
f 22/5/1 18/5/1 17/5/1
f 23/5/1 18/5/1 22/5/1
f 24/5/1 18/5/1 23/5/1
f 25/2/1 20/2/1 19/2/1
f 26/4/1 21/4/1 20/4/1
f 26/2/1 20/2/1 25/2/1
f 27/3/1 22/3/1 21/3/1
f 27/4/1 21/4/1 26/4/1
f 28/4/1 23/4/1 22/4/1
f 28/3/1 22/3/1 27/3/1
f 29/2/1 24/2/1 23/2/1
f 29/4/1 23/4/1 28/4/1
f 30/2/1 24/2/1 29/2/1
f 31/5/1 26/5/1 25/5/1
f 31/5/1 27/5/1 26/5/1
f 32/5/1 27/5/1 31/5/1
f 33/5/1 30/5/1 29/5/1
f 33/5/1 29/5/1 28/5/1
f 34/5/1 30/5/1 33/5/1
f 35/1/1 32/1/1 31/1/1
f 36/1/1 32/1/1 35/1/1
f 37/5/1 27/5/1 32/5/1
f 37/4/1 28/4/1 27/4/1
f 38/5/1 33/5/1 28/5/1
f 38/4/1 28/4/1 37/4/1
f 39/1/1 34/1/1 33/1/1
f 40/1/1 34/1/1 39/1/1
f 41/4/1 36/4/1 35/4/1
f 42/1/1 32/1/1 36/1/1
f 42/4/1 36/4/1 41/4/1
f 43/5/1 37/5/1 32/5/1
f 43/1/1 32/1/1 42/1/1
f 44/2/1 38/2/1 37/2/1
f 44/5/1 37/5/1 43/5/1
f 45/5/1 33/5/1 38/5/1
f 45/2/1 38/2/1 44/2/1
f 46/1/1 39/1/1 33/1/1
f 46/5/1 33/5/1 45/5/1
f 47/4/1 40/4/1 39/4/1
f 47/1/1 39/1/1 46/1/1
f 48/4/1 40/4/1 47/4/1
f 49/4/2 50/4/2 57/4/2
f 50/1/2 51/1/2 58/1/2
f 57/4/2 50/4/2 58/4/2
f 51/5/2 52/5/2 59/5/2
f 52/2/2 53/2/2 59/2/2
f 53/5/2 54/5/2 60/5/2
f 59/2/2 53/2/2 60/2/2
f 55/4/2 56/4/2 61/4/2
f 54/1/2 55/1/2 61/1/2
f 61/4/2 56/4/2 62/4/2
f 57/1/2 58/1/2 63/1/2
f 58/1/2 51/1/2 64/1/2
f 63/1/2 58/1/2 64/1/2
f 51/5/2 59/5/2 64/5/2
f 60/5/2 54/5/2 65/5/2
f 61/1/2 62/1/2 65/1/2
f 54/1/2 61/1/2 65/1/2
f 65/1/2 62/1/2 66/1/2
f 63/5/2 64/5/2 67/5/2
f 67/5/2 64/5/2 68/5/2
f 64/5/2 59/5/2 69/5/2
f 68/5/2 64/5/2 69/5/2
f 59/4/2 60/4/2 69/4/2
f 60/5/2 65/5/2 70/5/2
f 69/4/2 60/4/2 70/4/2
f 65/5/2 66/5/2 70/5/2
f 70/5/2 66/5/2 71/5/2
f 71/5/2 66/5/2 72/5/2
f 67/2/2 68/2/2 73/2/2
f 68/4/2 69/4/2 74/4/2
f 73/2/2 68/2/2 74/2/2
f 69/3/2 70/3/2 75/3/2
f 74/4/2 69/4/2 75/4/2
f 70/4/2 71/4/2 76/4/2
f 75/3/2 70/3/2 76/3/2
f 71/2/2 72/2/2 77/2/2
f 76/4/2 71/4/2 77/4/2
f 77/2/2 72/2/2 78/2/2
f 73/5/2 74/5/2 79/5/2
f 74/5/2 75/5/2 79/5/2
f 79/5/2 75/5/2 80/5/2
f 77/5/2 78/5/2 81/5/2
f 76/5/2 77/5/2 81/5/2
f 81/5/2 78/5/2 82/5/2
f 79/1/2 80/1/2 83/1/2
f 83/1/2 80/1/2 84/1/2
f 80/5/2 75/5/2 85/5/2
f 75/4/2 76/4/2 85/4/2
f 76/5/2 81/5/2 86/5/2
f 85/4/2 76/4/2 86/4/2
f 81/1/2 82/1/2 87/1/2
f 87/1/2 82/1/2 88/1/2
f 83/4/2 84/4/2 89/4/2
f 84/1/2 80/1/2 90/1/2
f 89/4/2 84/4/2 90/4/2
f 80/5/2 85/5/2 91/5/2
f 90/1/2 80/1/2 91/1/2
f 85/2/2 86/2/2 92/2/2
f 91/5/2 85/5/2 92/5/2
f 86/5/2 81/5/2 93/5/2
f 92/2/2 86/2/2 93/2/2
f 81/1/2 87/1/2 94/1/2
f 93/5/2 81/5/2 94/5/2
f 87/4/2 88/4/2 95/4/2
f 94/1/2 87/1/2 95/1/2
f 95/4/2 88/4/2 96/4/2
f 105/4/3 98/4/3 97/4/3
f 106/1/3 99/1/3 98/1/3
f 106/4/3 98/4/3 105/4/3
f 107/5/3 100/5/3 99/5/3
f 107/2/3 101/2/3 100/2/3
f 108/5/3 102/5/3 101/5/3
f 108/2/3 101/2/3 107/2/3
f 109/4/3 104/4/3 103/4/3
f 109/1/3 103/1/3 102/1/3
f 110/4/3 104/4/3 109/4/3
f 111/1/3 106/1/3 105/1/3
f 112/1/3 99/1/3 106/1/3
f 112/1/3 106/1/3 111/1/3
f 112/5/3 107/5/3 99/5/3
f 113/5/3 102/5/3 108/5/3
f 113/1/3 110/1/3 109/1/3
f 113/1/3 109/1/3 102/1/3
f 114/1/3 110/1/3 113/1/3
f 115/5/3 112/5/3 111/5/3
f 116/5/3 112/5/3 115/5/3
f 117/5/3 107/5/3 112/5/3
f 117/5/3 112/5/3 116/5/3
f 117/4/3 108/4/3 107/4/3
f 118/5/3 113/5/3 108/5/3
f 118/4/3 108/4/3 117/4/3
f 118/5/3 114/5/3 113/5/3
f 119/5/3 114/5/3 118/5/3
f 120/5/3 114/5/3 119/5/3
f 121/2/3 116/2/3 115/2/3
f 122/4/3 117/4/3 116/4/3
f 122/2/3 116/2/3 121/2/3
f 123/3/3 118/3/3 117/3/3
f 123/4/3 117/4/3 122/4/3
f 124/4/3 119/4/3 118/4/3
f 124/3/3 118/3/3 123/3/3
f 125/2/3 120/2/3 119/2/3
f 125/4/3 119/4/3 124/4/3
f 126/2/3 120/2/3 125/2/3
f 127/5/3 122/5/3 121/5/3
f 127/5/3 123/5/3 122/5/3
f 128/5/3 123/5/3 127/5/3
f 129/5/3 126/5/3 125/5/3
f 129/5/3 125/5/3 124/5/3
f 130/5/3 126/5/3 129/5/3
f 131/1/3 128/1/3 127/1/3
f 132/1/3 128/1/3 131/1/3
f 133/5/3 123/5/3 128/5/3
f 133/4/3 124/4/3 123/4/3
f 134/5/3 129/5/3 124/5/3
f 134/4/3 124/4/3 133/4/3
f 135/1/3 130/1/3 129/1/3
f 136/1/3 130/1/3 135/1/3
f 137/4/3 132/4/3 131/4/3
f 138/1/3 128/1/3 132/1/3
f 138/4/3 132/4/3 137/4/3
f 139/5/3 133/5/3 128/5/3
f 139/1/3 128/1/3 138/1/3
f 140/2/3 134/2/3 133/2/3
f 140/5/3 133/5/3 139/5/3
f 141/5/3 129/5/3 134/5/3
f 141/2/3 134/2/3 140/2/3
f 142/1/3 135/1/3 129/1/3
f 142/5/3 129/5/3 141/5/3
f 143/4/3 136/4/3 135/4/3
f 143/1/3 135/1/3 142/1/3
f 144/4/3 136/4/3 143/4/3
f 145/4/4 146/4/4 153/4/4
f 146/1/4 147/1/4 154/1/4
f 153/4/4 146/4/4 154/4/4
f 147/5/4 148/5/4 155/5/4
f 148/2/4 149/2/4 155/2/4
f 149/5/4 150/5/4 156/5/4
f 155/2/4 149/2/4 156/2/4
f 151/4/4 152/4/4 157/4/4
f 150/1/4 151/1/4 157/1/4
f 157/4/4 152/4/4 158/4/4
f 153/1/4 154/1/4 159/1/4
f 154/1/4 147/1/4 160/1/4
f 159/1/4 154/1/4 160/1/4
f 147/5/4 155/5/4 160/5/4
f 156/5/4 150/5/4 161/5/4
f 157/1/4 158/1/4 161/1/4
f 150/1/4 157/1/4 161/1/4
f 161/1/4 158/1/4 162/1/4
f 159/5/4 160/5/4 163/5/4
f 163/5/4 160/5/4 164/5/4
f 160/5/4 155/5/4 165/5/4
f 164/5/4 160/5/4 165/5/4
f 155/4/4 156/4/4 165/4/4
f 156/5/4 161/5/4 166/5/4
f 165/4/4 156/4/4 166/4/4
f 161/5/4 162/5/4 166/5/4
f 166/5/4 162/5/4 167/5/4
f 167/5/4 162/5/4 168/5/4
f 163/2/4 164/2/4 169/2/4
f 164/4/4 165/4/4 170/4/4
f 169/2/4 164/2/4 170/2/4
f 165/3/4 166/3/4 171/3/4
f 170/4/4 165/4/4 171/4/4
f 166/4/4 167/4/4 172/4/4
f 171/3/4 166/3/4 172/3/4
f 167/2/4 168/2/4 173/2/4
f 172/4/4 167/4/4 173/4/4
f 173/2/4 168/2/4 174/2/4
f 169/5/4 170/5/4 175/5/4
f 170/5/4 171/5/4 175/5/4
f 175/5/4 171/5/4 176/5/4
f 173/5/4 174/5/4 177/5/4
f 172/5/4 173/5/4 177/5/4
f 177/5/4 174/5/4 178/5/4
f 175/1/4 176/1/4 179/1/4
f 179/1/4 176/1/4 180/1/4
f 176/5/4 171/5/4 181/5/4
f 171/4/4 172/4/4 181/4/4
f 172/5/4 177/5/4 182/5/4
f 181/4/4 172/4/4 182/4/4
f 177/1/4 178/1/4 183/1/4
f 183/1/4 178/1/4 184/1/4
f 179/4/4 180/4/4 185/4/4
f 180/1/4 176/1/4 186/1/4
f 185/4/4 180/4/4 186/4/4
f 176/5/4 181/5/4 187/5/4
f 186/1/4 176/1/4 187/1/4
f 181/2/4 182/2/4 188/2/4
f 187/5/4 181/5/4 188/5/4
f 182/5/4 177/5/4 189/5/4
f 188/2/4 182/2/4 189/2/4
f 177/1/4 183/1/4 190/1/4
f 189/5/4 177/5/4 190/5/4
f 183/4/4 184/4/4 191/4/4
f 190/1/4 183/1/4 191/1/4
f 191/4/4 184/4/4 192/4/4
f 201/4/5 194/4/5 193/4/5
f 202/1/5 195/1/5 194/1/5
f 202/4/5 194/4/5 201/4/5
f 203/5/5 196/5/5 195/5/5
f 203/2/5 197/2/5 196/2/5
f 204/5/5 198/5/5 197/5/5
f 204/2/5 197/2/5 203/2/5
f 205/4/5 200/4/5 199/4/5
f 205/1/5 199/1/5 198/1/5
f 206/4/5 200/4/5 205/4/5
f 207/1/5 202/1/5 201/1/5
f 208/1/5 195/1/5 202/1/5
f 208/1/5 202/1/5 207/1/5
f 208/5/5 203/5/5 195/5/5
f 209/5/5 198/5/5 204/5/5
f 209/1/5 206/1/5 205/1/5
f 209/1/5 205/1/5 198/1/5
f 210/1/5 206/1/5 209/1/5
f 211/5/5 208/5/5 207/5/5
f 212/5/5 208/5/5 211/5/5
f 213/5/5 203/5/5 208/5/5
f 213/5/5 208/5/5 212/5/5
f 213/4/5 204/4/5 203/4/5
f 214/5/5 209/5/5 204/5/5
f 214/4/5 204/4/5 213/4/5
f 214/5/5 210/5/5 209/5/5
f 215/5/5 210/5/5 214/5/5
f 216/5/5 210/5/5 215/5/5
f 217/2/5 212/2/5 211/2/5
f 218/4/5 213/4/5 212/4/5
f 218/2/5 212/2/5 217/2/5
f 219/3/5 214/3/5 213/3/5
f 219/4/5 213/4/5 218/4/5
f 220/4/5 215/4/5 214/4/5
f 220/3/5 214/3/5 219/3/5
f 221/2/5 216/2/5 215/2/5
f 221/4/5 215/4/5 220/4/5
f 222/2/5 216/2/5 221/2/5
f 223/5/5 218/5/5 217/5/5
f 223/5/5 219/5/5 218/5/5
f 224/5/5 219/5/5 223/5/5
f 225/5/5 222/5/5 221/5/5
f 225/5/5 221/5/5 220/5/5
f 226/5/5 222/5/5 225/5/5
f 227/1/5 224/1/5 223/1/5
f 228/1/5 224/1/5 227/1/5
f 229/5/5 219/5/5 224/5/5
f 229/4/5 220/4/5 219/4/5
f 230/5/5 225/5/5 220/5/5
f 230/4/5 220/4/5 229/4/5
f 231/1/5 226/1/5 225/1/5
f 232/1/5 226/1/5 231/1/5
f 233/4/5 228/4/5 227/4/5
f 234/1/5 224/1/5 228/1/5
f 234/4/5 228/4/5 233/4/5
f 235/5/5 229/5/5 224/5/5
f 235/1/5 224/1/5 234/1/5
f 236/2/5 230/2/5 229/2/5
f 236/5/5 229/5/5 235/5/5
f 237/5/5 225/5/5 230/5/5
f 237/2/5 230/2/5 236/2/5
f 238/1/5 231/1/5 225/1/5
f 238/5/5 225/5/5 237/5/5
f 239/4/5 232/4/5 231/4/5
f 239/1/5 231/1/5 238/1/5
f 240/4/5 232/4/5 239/4/5
f 241/4/6 242/4/6 249/4/6
f 242/1/6 243/1/6 250/1/6
f 249/4/6 242/4/6 250/4/6
f 243/5/6 244/5/6 251/5/6
f 244/2/6 245/2/6 251/2/6
f 245/5/6 246/5/6 252/5/6
f 251/2/6 245/2/6 252/2/6
f 247/4/6 248/4/6 253/4/6
f 246/1/6 247/1/6 253/1/6
f 253/4/6 248/4/6 254/4/6
f 249/1/6 250/1/6 255/1/6
f 250/1/6 243/1/6 256/1/6
f 255/1/6 250/1/6 256/1/6
f 243/5/6 251/5/6 256/5/6
f 252/5/6 246/5/6 257/5/6
f 253/1/6 254/1/6 257/1/6
f 246/1/6 253/1/6 257/1/6
f 257/1/6 254/1/6 258/1/6
f 255/5/6 256/5/6 259/5/6
f 259/5/6 256/5/6 260/5/6
f 256/5/6 251/5/6 261/5/6
f 260/5/6 256/5/6 261/5/6
f 251/4/6 252/4/6 261/4/6
f 252/5/6 257/5/6 262/5/6
f 261/4/6 252/4/6 262/4/6
f 257/5/6 258/5/6 262/5/6
f 262/5/6 258/5/6 263/5/6
f 263/5/6 258/5/6 264/5/6
f 259/2/6 260/2/6 265/2/6
f 260/4/6 261/4/6 266/4/6
f 265/2/6 260/2/6 266/2/6
f 261/3/6 262/3/6 267/3/6
f 266/4/6 261/4/6 267/4/6
f 262/4/6 263/4/6 268/4/6
f 267/3/6 262/3/6 268/3/6
f 263/2/6 264/2/6 269/2/6
f 268/4/6 263/4/6 269/4/6
f 269/2/6 264/2/6 270/2/6
f 265/5/6 266/5/6 271/5/6
f 266/5/6 267/5/6 271/5/6
f 271/5/6 267/5/6 272/5/6
f 269/5/6 270/5/6 273/5/6
f 268/5/6 269/5/6 273/5/6
f 273/5/6 270/5/6 274/5/6
f 271/1/6 272/1/6 275/1/6
f 275/1/6 272/1/6 276/1/6
f 272/5/6 267/5/6 277/5/6
f 267/4/6 268/4/6 277/4/6
f 268/5/6 273/5/6 278/5/6
f 277/4/6 268/4/6 278/4/6
f 273/1/6 274/1/6 279/1/6
f 279/1/6 274/1/6 280/1/6
f 275/4/6 276/4/6 281/4/6
f 276/1/6 272/1/6 282/1/6
f 281/4/6 276/4/6 282/4/6
f 272/5/6 277/5/6 283/5/6
f 282/1/6 272/1/6 283/1/6
f 277/2/6 278/2/6 284/2/6
f 283/5/6 277/5/6 284/5/6
f 278/5/6 273/5/6 285/5/6
f 284/2/6 278/2/6 285/2/6
f 273/1/6 279/1/6 286/1/6
f 285/5/6 273/5/6 286/5/6
f 279/4/6 280/4/6 287/4/6
f 286/1/6 279/1/6 287/1/6
f 287/4/6 280/4/6 288/4/6
