# MagicaVoxel @ Ephtracy

# material
mtllib lever base.mtl
usemtl palette

# normals
vn -1 0 0
vn 1 0 0
vn 0 0 1
vn 0 0 -1
vn 0 -1 0
vn 0 1 0

# texcoords
vt 0.0175781 0.5
vt 0.986328 0.5
vt 0.990234 0.5

# verts
v -6 0 6
v -6 0 -6
v -6 1 6
v -6 1 -6
v -5 0 9
v -5 0 6
v -5 0 -6
v -5 0 -9
v -5 1 9
v -5 1 6
v -5 1 5
v -5 1 -5
v -5 1 -6
v -5 1 -9
v -5 2 5
v -5 2 4
v -5 2 -3
v -5 2 -5
v -5 3 4
v -5 3 3
v -5 3 -2
v -5 3 -3
v -5 4 3
v -5 4 2
v -5 4 -1
v -5 4 -2
v -5 5 2
v -5 5 -1
v -4 0 11
v -4 0 9
v -4 0 -9
v -4 0 -11
v -4 1 11
v -4 1 9
v -4 1 7
v -4 1 5
v -4 1 -5
v -4 1 -7
v -4 1 -9
v -4 1 -11
v -4 2 7
v -4 2 5
v -4 2 -5
v -4 2 -7
v -3 0 13
v -3 0 11
v -3 0 -11
v -3 0 -13
v -3 1 13
v -3 1 11
v -3 1 8
v -3 1 7
v -3 1 -7
v -3 1 -8
v -3 1 -11
v -3 1 -13
v -3 2 8
v -3 2 7
v -3 2 -7
v -3 2 -8
v -2 0 14
v -2 0 13
v -2 0 -13
v -2 0 -14
v -2 1 14
v -2 1 13
v -2 1 -13
v -2 1 -14
v -1 0 15
v -1 0 14
v -1 0 -14
v -1 0 -15
v -1 1 15
v -1 1 14
v -1 1 9
v -1 1 8
v -1 1 -8
v -1 1 -9
v -1 1 -14
v -1 1 -15
v -1 2 9
v -1 2 8
v -1 2 -8
v -1 2 -9
v 3 1 4
v 3 1 3
v 3 1 -3
v 3 1 -4
v 3 2 4
v 3 2 3
v 3 2 -3
v 3 2 -4
v 4 1 3
v 4 1 -3
v 4 2 4
v 4 2 3
v 4 2 -3
v 4 3 4
v 4 3 3
v 4 3 -2
v 4 3 -3
v 4 4 3
v 4 4 2
v 4 4 -1
v 4 4 -2
v 4 5 2
v 4 5 -1
v -4 1 3
v -4 1 -3
v -4 2 4
v -4 2 3
v -4 2 -3
v -4 3 4
v -4 3 3
v -4 3 -2
v -4 3 -3
v -4 4 3
v -4 4 2
v -4 4 -1
v -4 4 -2
v -4 5 2
v -4 5 -1
v -3 1 4
v -3 1 3
v -3 1 -3
v -3 1 -4
v -3 2 4
v -3 2 3
v -3 2 -3
v -3 2 -4
v 1 0 15
v 1 0 14
v 1 0 -14
v 1 0 -15
v 1 1 15
v 1 1 14
v 1 1 9
v 1 1 8
v 1 1 -8
v 1 1 -9
v 1 1 -14
v 1 1 -15
v 1 2 9
v 1 2 8
v 1 2 -8
v 1 2 -9
v 2 0 14
v 2 0 13
v 2 0 -13
v 2 0 -14
v 2 1 14
v 2 1 13
v 2 1 -13
v 2 1 -14
v 3 0 13
v 3 0 11
v 3 0 -11
v 3 0 -13
v 3 1 13
v 3 1 11
v 3 1 8
v 3 1 7
v 3 1 -7
v 3 1 -8
v 3 1 -11
v 3 1 -13
v 3 2 8
v 3 2 7
v 3 2 -7
v 3 2 -8
v 4 0 11
v 4 0 9
v 4 0 -9
v 4 0 -11
v 4 1 11
v 4 1 9
v 4 1 7
v 4 1 5
v 4 1 -5
v 4 1 -7
v 4 1 -9
v 4 1 -11
v 4 2 7
v 4 2 5
v 4 2 -5
v 4 2 -7
v 5 0 9
v 5 0 6
v 5 0 -6
v 5 0 -9
v 5 1 9
v 5 1 6
v 5 1 5
v 5 1 -5
v 5 1 -6
v 5 1 -9
v 5 2 5
v 5 2 4
v 5 2 -3
v 5 2 -5
v 5 3 4
v 5 3 3
v 5 3 -2
v 5 3 -3
v 5 4 3
v 5 4 2
v 5 4 -1
v 5 4 -2
v 5 5 2
v 5 5 -1
v 6 0 6
v 6 0 -6
v 6 1 6
v 6 1 -6
v -1 0 15
v -1 1 15
v 1 0 15
v 1 1 15
v -2 0 14
v -2 1 14
v -1 0 14
v -1 1 14
v 1 0 14
v 1 1 14
v 2 0 14
v 2 1 14
v -3 0 13
v -3 1 13
v -2 0 13
v -2 1 13
v 2 0 13
v 2 1 13
v 3 0 13
v 3 1 13
v -4 0 11
v -4 1 11
v -3 0 11
v -3 1 11
v 3 0 11
v 3 1 11
v 4 0 11
v 4 1 11
v -5 0 9
v -5 1 9
v -4 0 9
v -4 1 9
v -1 1 9
v -1 2 9
v 1 1 9
v 1 2 9
v 4 0 9
v 4 1 9
v 5 0 9
v 5 1 9
v -3 1 8
v -3 2 8
v -1 1 8
v -1 2 8
v 1 1 8
v 1 2 8
v 3 1 8
v 3 2 8
v -4 1 7
v -4 2 7
v -3 1 7
v -3 2 7
v 3 1 7
v 3 2 7
v 4 1 7
v 4 2 7
v -6 0 6
v -6 1 6
v -5 0 6
v -5 1 6
v 5 0 6
v 5 1 6
v 6 0 6
v 6 1 6
v -5 1 5
v -5 2 5
v -4 1 5
v -4 2 5
v 4 1 5
v 4 2 5
v 5 1 5
v 5 2 5
v -5 2 4
v -5 3 4
v -4 2 4
v -4 3 4
v 4 2 4
v 4 3 4
v 5 2 4
v 5 3 4
v -5 3 3
v -5 4 3
v -4 3 3
v -4 4 3
v 4 3 3
v 4 4 3
v 5 3 3
v 5 4 3
v -5 4 2
v -5 5 2
v -4 4 2
v -4 5 2
v 4 4 2
v 4 5 2
v 5 4 2
v 5 5 2
v -4 1 -3
v -4 2 -3
v -3 1 -3
v -3 2 -3
v 3 1 -3
v 3 2 -3
v 4 1 -3
v 4 2 -3
v -3 1 -4
v -3 2 -4
v 3 1 -4
v 3 2 -4
v -3 1 4
v -3 2 4
v 3 1 4
v 3 2 4
v -4 1 3
v -4 2 3
v -3 1 3
v -3 2 3
v 3 1 3
v 3 2 3
v 4 1 3
v 4 2 3
v -5 4 -1
v -5 5 -1
v -4 4 -1
v -4 5 -1
v 4 4 -1
v 4 5 -1
v 5 4 -1
v 5 5 -1
v -5 3 -2
v -5 4 -2
v -4 3 -2
v -4 4 -2
v 4 3 -2
v 4 4 -2
v 5 3 -2
v 5 4 -2
v -5 2 -3
v -5 3 -3
v -4 2 -3
v -4 3 -3
v 4 2 -3
v 4 3 -3
v 5 2 -3
v 5 3 -3
v -5 1 -5
v -5 2 -5
v -4 1 -5
v -4 2 -5
v 4 1 -5
v 4 2 -5
v 5 1 -5
v 5 2 -5
v -6 0 -6
v -6 1 -6
v -5 0 -6
v -5 1 -6
v 5 0 -6
v 5 1 -6
v 6 0 -6
v 6 1 -6
v -4 1 -7
v -4 2 -7
v -3 1 -7
v -3 2 -7
v 3 1 -7
v 3 2 -7
v 4 1 -7
v 4 2 -7
v -3 1 -8
v -3 2 -8
v -1 1 -8
v -1 2 -8
v 1 1 -8
v 1 2 -8
v 3 1 -8
v 3 2 -8
v -5 0 -9
v -5 1 -9
v -4 0 -9
v -4 1 -9
v -1 1 -9
v -1 2 -9
v 1 1 -9
v 1 2 -9
v 4 0 -9
v 4 1 -9
v 5 0 -9
v 5 1 -9
v -4 0 -11
v -4 1 -11
v -3 0 -11
v -3 1 -11
v 3 0 -11
v 3 1 -11
v 4 0 -11
v 4 1 -11
v -3 0 -13
v -3 1 -13
v -2 0 -13
v -2 1 -13
v 2 0 -13
v 2 1 -13
v 3 0 -13
v 3 1 -13
v -2 0 -14
v -2 1 -14
v -1 0 -14
v -1 1 -14
v 1 0 -14
v 1 1 -14
v 2 0 -14
v 2 1 -14
v -1 0 -15
v -1 1 -15
v 1 0 -15
v 1 1 -15
v -1 0 15
v 1 0 15
v -2 0 14
v -1 0 14
v 1 0 14
v 2 0 14
v -3 0 13
v -2 0 13
v -1 0 13
v 1 0 13
v 2 0 13
v 3 0 13
v -4 0 11
v -3 0 11
v -2 0 11
v 2 0 11
v 3 0 11
v 4 0 11
v -5 0 9
v -4 0 9
v -1 0 9
v 1 0 9
v 4 0 9
v 5 0 9
v -3 0 8
v -1 0 8
v 1 0 8
v 3 0 8
v -6 0 6
v -5 0 6
v 5 0 6
v 6 0 6
v -5 0 5
v -3 0 5
v 3 0 5
v 5 0 5
v -3 0 4
v 3 0 4
v -4 0 3
v -3 0 3
v 3 0 3
v 4 0 3
v -4 0 -3
v -3 0 -3
v 3 0 -3
v 4 0 -3
v -3 0 -4
v 3 0 -4
v -5 0 -5
v -4 0 -5
v 4 0 -5
v 5 0 -5
v -6 0 -6
v -5 0 -6
v 5 0 -6
v 6 0 -6
v -4 0 -7
v -3 0 -7
v 3 0 -7
v 4 0 -7
v -3 0 -8
v -1 0 -8
v 1 0 -8
v 3 0 -8
v -5 0 -9
v -4 0 -9
v -1 0 -9
v 1 0 -9
v 4 0 -9
v 5 0 -9
v -4 0 -11
v -3 0 -11
v -2 0 -11
v 2 0 -11
v 3 0 -11
v 4 0 -11
v -3 0 -13
v -2 0 -13
v -1 0 -13
v 1 0 -13
v 2 0 -13
v 3 0 -13
v -2 0 -14
v -1 0 -14
v 1 0 -14
v 2 0 -14
v -1 0 -15
v 1 0 -15
v -1 1 15
v 1 1 15
v -2 1 14
v -1 1 14
v 1 1 14
v 2 1 14
v -3 1 13
v -2 1 13
v -1 1 13
v 1 1 13
v 2 1 13
v 3 1 13
v -4 1 11
v -3 1 11
v -2 1 11
v 2 1 11
v 3 1 11
v 4 1 11
v -5 1 9
v -4 1 9
v -1 1 9
v 1 1 9
v 4 1 9
v 5 1 9
v -3 1 8
v -1 1 8
v 1 1 8
v 3 1 8
v -4 1 7
v -3 1 7
v 3 1 7
v 4 1 7
v -6 1 6
v -5 1 6
v 5 1 6
v 6 1 6
v -5 1 5
v -4 1 5
v 4 1 5
v 5 1 5
v -3 1 4
v 3 1 4
v -4 1 3
v -3 1 3
v 3 1 3
v 4 1 3
v -4 1 -3
v -3 1 -3
v 3 1 -3
v 4 1 -3
v -3 1 -4
v 3 1 -4
v -5 1 -5
v -4 1 -5
v 4 1 -5
v 5 1 -5
v -6 1 -6
v -5 1 -6
v 5 1 -6
v 6 1 -6
v -4 1 -7
v -3 1 -7
v 3 1 -7
v 4 1 -7
v -3 1 -8
v -1 1 -8
v 1 1 -8
v 3 1 -8
v -5 1 -9
v -4 1 -9
v -1 1 -9
v 1 1 -9
v 4 1 -9
v 5 1 -9
v -4 1 -11
v -3 1 -11
v -2 1 -11
v 2 1 -11
v 3 1 -11
v 4 1 -11
v -3 1 -13
v -2 1 -13
v -1 1 -13
v 1 1 -13
v 2 1 -13
v 3 1 -13
v -2 1 -14
v -1 1 -14
v 1 1 -14
v 2 1 -14
v -1 1 -15
v 1 1 -15
v -1 2 9
v 1 2 9
v -3 2 8
v -1 2 8
v 1 2 8
v 3 2 8
v -4 2 7
v -3 2 7
v 3 2 7
v 4 2 7
v -5 2 5
v -4 2 5
v 4 2 5
v 5 2 5
v -5 2 4
v -4 2 4
v -3 2 4
v 3 2 4
v 4 2 4
v 5 2 4
v -4 2 3
v -3 2 3
v 3 2 3
v 4 2 3
v -5 2 -3
v -4 2 -3
v -3 2 -3
v 3 2 -3
v 4 2 -3
v 5 2 -3
v -3 2 -4
v 3 2 -4
v -5 2 -5
v -4 2 -5
v 4 2 -5
v 5 2 -5
v -4 2 -7
v -3 2 -7
v 3 2 -7
v 4 2 -7
v -3 2 -8
v -1 2 -8
v 1 2 -8
v 3 2 -8
v -1 2 -9
v 1 2 -9
v -5 3 4
v -4 3 4
v 4 3 4
v 5 3 4
v -5 3 3
v -4 3 3
v 4 3 3
v 5 3 3
v -5 3 -2
v -4 3 -2
v 4 3 -2
v 5 3 -2
v -5 3 -3
v -4 3 -3
v 4 3 -3
v 5 3 -3
v -5 4 3
v -4 4 3
v 4 4 3
v 5 4 3
v -5 4 2
v -4 4 2
v 4 4 2
v 5 4 2
v -5 4 -1
v -4 4 -1
v 4 4 -1
v 5 4 -1
v -5 4 -2
v -4 4 -2
v 4 4 -2
v 5 4 -2
v -5 5 2
v -4 5 2
v 4 5 2
v 5 5 2
v -5 5 -1
v -4 5 -1
v 4 5 -1
v 5 5 -1

# faces
f 3/1/1 2/1/1 1/1/1
f 4/1/1 2/1/1 3/1/1
f 9/1/1 6/1/1 5/1/1
f 10/1/1 6/1/1 9/1/1
f 13/1/1 8/1/1 7/1/1
f 14/1/1 8/1/1 13/1/1
f 15/2/1 12/2/1 11/2/1
f 16/2/1 12/2/1 15/2/1
f 17/2/1 12/2/1 16/2/1
f 18/2/1 12/2/1 17/2/1
f 19/2/1 17/2/1 16/2/1
f 20/2/1 17/2/1 19/2/1
f 21/2/1 17/2/1 20/2/1
f 22/2/1 17/2/1 21/2/1
f 23/2/1 21/2/1 20/2/1
f 24/2/1 21/2/1 23/2/1
f 25/2/1 21/2/1 24/2/1
f 26/2/1 21/2/1 25/2/1
f 27/2/1 25/2/1 24/2/1
f 28/2/1 25/2/1 27/2/1
f 33/1/1 30/1/1 29/1/1
f 34/1/1 30/1/1 33/1/1
f 39/1/1 32/1/1 31/1/1
f 40/1/1 32/1/1 39/1/1
f 41/2/1 36/2/1 35/2/1
f 42/2/1 36/2/1 41/2/1
f 43/2/1 38/2/1 37/2/1
f 44/2/1 38/2/1 43/2/1
f 49/1/1 46/1/1 45/1/1
f 50/1/1 46/1/1 49/1/1
f 55/1/1 48/1/1 47/1/1
f 56/1/1 48/1/1 55/1/1
f 57/2/1 52/2/1 51/2/1
f 58/2/1 52/2/1 57/2/1
f 59/2/1 54/2/1 53/2/1
f 60/2/1 54/2/1 59/2/1
f 65/1/1 62/1/1 61/1/1
f 66/1/1 62/1/1 65/1/1
f 67/1/1 64/1/1 63/1/1
f 68/1/1 64/1/1 67/1/1
f 73/1/1 70/1/1 69/1/1
f 74/1/1 70/1/1 73/1/1
f 79/1/1 72/1/1 71/1/1
f 80/1/1 72/1/1 79/1/1
f 81/2/1 76/2/1 75/2/1
f 82/2/1 76/2/1 81/2/1
f 83/2/1 78/2/1 77/2/1
f 84/2/1 78/2/1 83/2/1
f 89/2/1 86/2/1 85/2/1
f 90/2/1 86/2/1 89/2/1
f 91/2/1 88/2/1 87/2/1
f 92/2/1 88/2/1 91/2/1
f 96/2/1 94/2/1 93/2/1
f 97/2/1 94/2/1 96/2/1
f 98/2/1 96/2/1 95/2/1
f 98/2/1 97/2/1 96/2/1
f 99/2/1 97/2/1 98/2/1
f 100/2/1 97/2/1 99/2/1
f 101/2/1 97/2/1 100/2/1
f 102/2/1 100/2/1 99/2/1
f 103/2/1 100/2/1 102/2/1
f 104/2/1 100/2/1 103/2/1
f 105/2/1 100/2/1 104/2/1
f 106/2/1 104/2/1 103/2/1
f 107/2/1 104/2/1 106/2/1
f 108/2/2 109/2/2 111/2/2
f 111/2/2 109/2/2 112/2/2
f 110/2/2 111/2/2 113/2/2
f 111/2/2 112/2/2 113/2/2
f 113/2/2 112/2/2 114/2/2
f 114/2/2 112/2/2 115/2/2
f 115/2/2 112/2/2 116/2/2
f 114/2/2 115/2/2 117/2/2
f 117/2/2 115/2/2 118/2/2
f 118/2/2 115/2/2 119/2/2
f 119/2/2 115/2/2 120/2/2
f 118/2/2 119/2/2 121/2/2
f 121/2/2 119/2/2 122/2/2
f 123/2/2 124/2/2 127/2/2
f 127/2/2 124/2/2 128/2/2
f 125/2/2 126/2/2 129/2/2
f 129/2/2 126/2/2 130/2/2
f 131/1/2 132/1/2 135/1/2
f 135/1/2 132/1/2 136/1/2
f 133/1/2 134/1/2 141/1/2
f 141/1/2 134/1/2 142/1/2
f 137/2/2 138/2/2 143/2/2
f 143/2/2 138/2/2 144/2/2
f 139/2/2 140/2/2 145/2/2
f 145/2/2 140/2/2 146/2/2
f 147/1/2 148/1/2 151/1/2
f 151/1/2 148/1/2 152/1/2
f 149/1/2 150/1/2 153/1/2
f 153/1/2 150/1/2 154/1/2
f 155/1/2 156/1/2 159/1/2
f 159/1/2 156/1/2 160/1/2
f 157/1/2 158/1/2 165/1/2
f 165/1/2 158/1/2 166/1/2
f 161/2/2 162/2/2 167/2/2
f 167/2/2 162/2/2 168/2/2
f 163/2/2 164/2/2 169/2/2
f 169/2/2 164/2/2 170/2/2
f 171/1/2 172/1/2 175/1/2
f 175/1/2 172/1/2 176/1/2
f 173/1/2 174/1/2 181/1/2
f 181/1/2 174/1/2 182/1/2
f 177/2/2 178/2/2 183/2/2
f 183/2/2 178/2/2 184/2/2
f 179/2/2 180/2/2 185/2/2
f 185/2/2 180/2/2 186/2/2
f 187/1/2 188/1/2 191/1/2
f 191/1/2 188/1/2 192/1/2
f 189/1/2 190/1/2 195/1/2
f 195/1/2 190/1/2 196/1/2
f 193/2/2 194/2/2 197/2/2
f 197/2/2 194/2/2 198/2/2
f 198/2/2 194/2/2 199/2/2
f 199/2/2 194/2/2 200/2/2
f 198/2/2 199/2/2 201/2/2
f 201/2/2 199/2/2 202/2/2
f 202/2/2 199/2/2 203/2/2
f 203/2/2 199/2/2 204/2/2
f 202/2/2 203/2/2 205/2/2
f 205/2/2 203/2/2 206/2/2
f 206/2/2 203/2/2 207/2/2
f 207/2/2 203/2/2 208/2/2
f 206/2/2 207/2/2 209/2/2
f 209/2/2 207/2/2 210/2/2
f 211/1/2 212/1/2 213/1/2
f 213/1/2 212/1/2 214/1/2
f 217/1/3 216/1/3 215/1/3
f 218/1/3 216/1/3 217/1/3
f 221/1/3 220/1/3 219/1/3
f 222/1/3 220/1/3 221/1/3
f 225/1/3 224/1/3 223/1/3
f 226/1/3 224/1/3 225/1/3
f 229/1/3 228/1/3 227/1/3
f 230/1/3 228/1/3 229/1/3
f 233/1/3 232/1/3 231/1/3
f 234/1/3 232/1/3 233/1/3
f 237/1/3 236/1/3 235/1/3
f 238/1/3 236/1/3 237/1/3
f 241/1/3 240/1/3 239/1/3
f 242/1/3 240/1/3 241/1/3
f 245/1/3 244/1/3 243/1/3
f 246/1/3 244/1/3 245/1/3
f 249/2/3 248/2/3 247/2/3
f 250/2/3 248/2/3 249/2/3
f 253/1/3 252/1/3 251/1/3
f 254/1/3 252/1/3 253/1/3
f 257/2/3 256/2/3 255/2/3
f 258/2/3 256/2/3 257/2/3
f 261/2/3 260/2/3 259/2/3
f 262/2/3 260/2/3 261/2/3
f 265/2/3 264/2/3 263/2/3
f 266/2/3 264/2/3 265/2/3
f 269/2/3 268/2/3 267/2/3
f 270/2/3 268/2/3 269/2/3
f 273/1/3 272/1/3 271/1/3
f 274/1/3 272/1/3 273/1/3
f 277/1/3 276/1/3 275/1/3
f 278/1/3 276/1/3 277/1/3
f 281/2/3 280/2/3 279/2/3
f 282/2/3 280/2/3 281/2/3
f 285/2/3 284/2/3 283/2/3
f 286/2/3 284/2/3 285/2/3
f 289/2/3 288/2/3 287/2/3
f 290/2/3 288/2/3 289/2/3
f 293/2/3 292/2/3 291/2/3
f 294/2/3 292/2/3 293/2/3
f 297/2/3 296/2/3 295/2/3
f 298/2/3 296/2/3 297/2/3
f 301/2/3 300/2/3 299/2/3
f 302/2/3 300/2/3 301/2/3
f 305/2/3 304/2/3 303/2/3
f 306/2/3 304/2/3 305/2/3
f 309/2/3 308/2/3 307/2/3
f 310/2/3 308/2/3 309/2/3
f 313/2/3 312/2/3 311/2/3
f 314/2/3 312/2/3 313/2/3
f 317/2/3 316/2/3 315/2/3
f 318/2/3 316/2/3 317/2/3
f 321/2/3 320/2/3 319/2/3
f 322/2/3 320/2/3 321/2/3
f 323/2/4 324/2/4 325/2/4
f 325/2/4 324/2/4 326/2/4
f 327/2/4 328/2/4 329/2/4
f 329/2/4 328/2/4 330/2/4
f 331/2/4 332/2/4 333/2/4
f 333/2/4 332/2/4 334/2/4
f 335/2/4 336/2/4 337/2/4
f 337/2/4 336/2/4 338/2/4
f 339/2/4 340/2/4 341/2/4
f 341/2/4 340/2/4 342/2/4
f 343/2/4 344/2/4 345/2/4
f 345/2/4 344/2/4 346/2/4
f 347/2/4 348/2/4 349/2/4
f 349/2/4 348/2/4 350/2/4
f 351/2/4 352/2/4 353/2/4
f 353/2/4 352/2/4 354/2/4
f 355/2/4 356/2/4 357/2/4
f 357/2/4 356/2/4 358/2/4
f 359/2/4 360/2/4 361/2/4
f 361/2/4 360/2/4 362/2/4
f 363/2/4 364/2/4 365/2/4
f 365/2/4 364/2/4 366/2/4
f 367/1/4 368/1/4 369/1/4
f 369/1/4 368/1/4 370/1/4
f 371/1/4 372/1/4 373/1/4
f 373/1/4 372/1/4 374/1/4
f 375/2/4 376/2/4 377/2/4
f 377/2/4 376/2/4 378/2/4
f 379/2/4 380/2/4 381/2/4
f 381/2/4 380/2/4 382/2/4
f 383/2/4 384/2/4 385/2/4
f 385/2/4 384/2/4 386/2/4
f 387/2/4 388/2/4 389/2/4
f 389/2/4 388/2/4 390/2/4
f 391/1/4 392/1/4 393/1/4
f 393/1/4 392/1/4 394/1/4
f 395/2/4 396/2/4 397/2/4
f 397/2/4 396/2/4 398/2/4
f 399/1/4 400/1/4 401/1/4
f 401/1/4 400/1/4 402/1/4
f 403/1/4 404/1/4 405/1/4
f 405/1/4 404/1/4 406/1/4
f 407/1/4 408/1/4 409/1/4
f 409/1/4 408/1/4 410/1/4
f 411/1/4 412/1/4 413/1/4
f 413/1/4 412/1/4 414/1/4
f 415/1/4 416/1/4 417/1/4
f 417/1/4 416/1/4 418/1/4
f 419/1/4 420/1/4 421/1/4
f 421/1/4 420/1/4 422/1/4
f 423/1/4 424/1/4 425/1/4
f 425/1/4 424/1/4 426/1/4
f 427/1/4 428/1/4 429/1/4
f 429/1/4 428/1/4 430/1/4
f 434/1/5 432/1/5 431/1/5
f 435/1/5 432/1/5 434/1/5
f 438/1/5 434/1/5 433/1/5
f 439/2/5 435/2/5 434/2/5
f 439/1/5 434/1/5 438/1/5
f 440/1/5 436/1/5 435/1/5
f 440/2/5 435/2/5 439/2/5
f 441/1/5 436/1/5 440/1/5
f 444/1/5 438/1/5 437/1/5
f 445/2/5 439/2/5 438/2/5
f 445/2/5 440/2/5 439/2/5
f 445/1/5 438/1/5 444/1/5
f 445/2/5 441/2/5 440/2/5
f 446/1/5 442/1/5 441/1/5
f 446/2/5 441/2/5 445/2/5
f 447/1/5 442/1/5 446/1/5
f 450/1/5 444/1/5 443/1/5
f 450/1/5 448/1/5 447/1/5
f 450/1/5 447/1/5 446/1/5
f 450/1/5 446/1/5 445/1/5
f 450/1/5 445/1/5 444/1/5
f 451/1/5 448/1/5 450/1/5
f 452/1/5 448/1/5 451/1/5
f 453/1/5 448/1/5 452/1/5
f 455/1/5 450/1/5 449/1/5
f 455/1/5 451/1/5 450/1/5
f 456/2/5 452/2/5 451/2/5
f 456/1/5 451/1/5 455/1/5
f 457/1/5 454/1/5 453/1/5
f 457/2/5 452/2/5 456/2/5
f 457/1/5 453/1/5 452/1/5
f 458/1/5 454/1/5 457/1/5
f 460/1/5 455/1/5 449/1/5
f 461/1/5 454/1/5 458/1/5
f 463/1/5 460/1/5 459/1/5
f 463/1/5 455/1/5 460/1/5
f 464/2/5 456/2/5 455/2/5
f 464/1/5 455/1/5 463/1/5
f 464/2/5 457/2/5 456/2/5
f 464/2/5 458/2/5 457/2/5
f 465/1/5 462/1/5 461/1/5
f 465/2/5 458/2/5 464/2/5
f 465/1/5 461/1/5 458/1/5
f 466/1/5 462/1/5 465/1/5
f 467/2/5 464/2/5 463/2/5
f 467/2/5 465/2/5 464/2/5
f 467/2/5 466/2/5 465/2/5
f 468/2/5 466/2/5 467/2/5
f 469/2/5 467/2/5 463/2/5
f 470/3/5 468/3/5 467/3/5
f 470/2/5 467/2/5 469/2/5
f 471/2/5 466/2/5 468/2/5
f 471/3/5 468/3/5 470/3/5
f 472/2/5 466/2/5 471/2/5
f 473/3/5 470/3/5 469/3/5
f 473/2/5 469/2/5 463/2/5
f 473/3/5 472/3/5 471/3/5
f 473/3/5 471/3/5 470/3/5
f 474/3/5 472/3/5 473/3/5
f 475/3/5 472/3/5 474/3/5
f 476/2/5 466/2/5 472/2/5
f 476/3/5 472/3/5 475/3/5
f 477/3/5 475/3/5 474/3/5
f 477/2/5 474/2/5 473/2/5
f 478/2/5 476/2/5 475/2/5
f 478/3/5 475/3/5 477/3/5
f 479/1/5 463/1/5 459/1/5
f 479/2/5 473/2/5 463/2/5
f 479/2/5 478/2/5 477/2/5
f 479/2/5 477/2/5 473/2/5
f 480/2/5 478/2/5 479/2/5
f 481/2/5 476/2/5 478/2/5
f 481/2/5 478/2/5 480/2/5
f 481/2/5 466/2/5 476/2/5
f 482/1/5 462/1/5 466/1/5
f 482/2/5 466/2/5 481/2/5
f 483/1/5 480/1/5 479/1/5
f 483/1/5 479/1/5 459/1/5
f 484/1/5 480/1/5 483/1/5
f 485/1/5 462/1/5 482/1/5
f 485/1/5 482/1/5 481/1/5
f 486/1/5 462/1/5 485/1/5
f 487/1/5 480/1/5 484/1/5
f 487/2/5 481/2/5 480/2/5
f 488/2/5 481/2/5 487/2/5
f 489/2/5 481/2/5 488/2/5
f 490/1/5 485/1/5 481/1/5
f 490/2/5 481/2/5 489/2/5
f 491/2/5 489/2/5 488/2/5
f 491/1/5 488/1/5 487/1/5
f 492/2/5 489/2/5 491/2/5
f 493/2/5 489/2/5 492/2/5
f 494/1/5 490/1/5 489/1/5
f 494/2/5 489/2/5 493/2/5
f 495/1/5 487/1/5 484/1/5
f 495/1/5 491/1/5 487/1/5
f 495/1/5 492/1/5 491/1/5
f 496/1/5 492/1/5 495/1/5
f 497/2/5 493/2/5 492/2/5
f 497/1/5 492/1/5 496/1/5
f 498/1/5 494/1/5 493/1/5
f 498/2/5 493/2/5 497/2/5
f 499/1/5 485/1/5 490/1/5
f 499/1/5 494/1/5 498/1/5
f 499/1/5 490/1/5 494/1/5
f 500/1/5 485/1/5 499/1/5
f 501/1/5 498/1/5 497/1/5
f 501/1/5 499/1/5 498/1/5
f 501/1/5 497/1/5 496/1/5
f 502/1/5 499/1/5 501/1/5
f 503/1/5 499/1/5 502/1/5
f 504/1/5 499/1/5 503/1/5
f 505/1/5 499/1/5 504/1/5
f 506/1/5 499/1/5 505/1/5
f 507/1/5 503/1/5 502/1/5
f 508/2/5 504/2/5 503/2/5
f 508/1/5 503/1/5 507/1/5
f 509/2/5 504/2/5 508/2/5
f 510/2/5 504/2/5 509/2/5
f 511/1/5 505/1/5 504/1/5
f 511/2/5 504/2/5 510/2/5
f 512/1/5 505/1/5 511/1/5
f 513/1/5 509/1/5 508/1/5
f 514/2/5 510/2/5 509/2/5
f 514/1/5 509/1/5 513/1/5
f 515/1/5 511/1/5 510/1/5
f 515/2/5 510/2/5 514/2/5
f 516/1/5 511/1/5 515/1/5
f 517/1/5 515/1/5 514/1/5
f 518/1/5 515/1/5 517/1/5
f 519/1/6 520/1/6 522/1/6
f 522/1/6 520/1/6 523/1/6
f 521/1/6 522/1/6 526/1/6
f 522/2/6 523/2/6 527/2/6
f 526/1/6 522/1/6 527/1/6
f 523/1/6 524/1/6 528/1/6
f 527/2/6 523/2/6 528/2/6
f 528/1/6 524/1/6 529/1/6
f 525/1/6 526/1/6 532/1/6
f 526/2/6 527/2/6 533/2/6
f 527/2/6 528/2/6 533/2/6
f 532/1/6 526/1/6 533/1/6
f 528/2/6 529/2/6 533/2/6
f 529/1/6 530/1/6 534/1/6
f 533/2/6 529/2/6 534/2/6
f 534/1/6 530/1/6 535/1/6
f 531/1/6 532/1/6 538/1/6
f 535/1/6 536/1/6 538/1/6
f 534/1/6 535/1/6 538/1/6
f 533/1/6 534/1/6 538/1/6
f 532/1/6 533/1/6 538/1/6
f 538/1/6 536/1/6 539/1/6
f 539/1/6 536/1/6 540/1/6
f 540/1/6 536/1/6 541/1/6
f 537/1/6 538/1/6 543/1/6
f 538/1/6 539/1/6 543/1/6
f 543/1/6 539/1/6 544/1/6
f 541/1/6 542/1/6 545/1/6
f 540/1/6 541/1/6 545/1/6
f 545/1/6 542/1/6 546/1/6
f 537/1/6 543/1/6 547/1/6
f 547/1/6 543/1/6 548/1/6
f 546/1/6 542/1/6 549/1/6
f 549/1/6 542/1/6 550/1/6
f 537/1/6 547/1/6 552/1/6
f 550/1/6 542/1/6 553/1/6
f 551/1/6 552/1/6 555/1/6
f 552/1/6 547/1/6 555/1/6
f 555/1/6 547/1/6 556/1/6
f 553/1/6 554/1/6 557/1/6
f 550/1/6 553/1/6 557/1/6
f 557/1/6 554/1/6 558/1/6
f 559/3/6 560/3/6 562/3/6
f 562/3/6 560/3/6 563/3/6
f 561/3/6 562/3/6 565/3/6
f 563/3/6 564/3/6 565/3/6
f 562/3/6 563/3/6 565/3/6
f 565/3/6 564/3/6 566/3/6
f 566/3/6 564/3/6 567/3/6
f 567/3/6 564/3/6 568/3/6
f 566/3/6 567/3/6 569/3/6
f 569/3/6 567/3/6 570/3/6
f 551/1/6 555/1/6 571/1/6
f 558/1/6 554/1/6 574/1/6
f 551/1/6 571/1/6 575/1/6
f 571/1/6 572/1/6 575/1/6
f 575/1/6 572/1/6 576/1/6
f 573/1/6 574/1/6 577/1/6
f 574/1/6 554/1/6 577/1/6
f 577/1/6 554/1/6 578/1/6
f 576/1/6 572/1/6 579/1/6
f 573/1/6 577/1/6 582/1/6
f 579/1/6 580/1/6 583/1/6
f 581/1/6 582/1/6 586/1/6
f 583/1/6 584/1/6 587/1/6
f 576/1/6 579/1/6 587/1/6
f 579/1/6 583/1/6 587/1/6
f 587/1/6 584/1/6 588/1/6
f 588/1/6 584/1/6 589/1/6
f 585/1/6 586/1/6 590/1/6
f 586/1/6 582/1/6 591/1/6
f 582/1/6 577/1/6 591/1/6
f 590/1/6 586/1/6 591/1/6
f 591/1/6 577/1/6 592/1/6
f 588/1/6 589/1/6 593/1/6
f 589/1/6 590/1/6 593/1/6
f 590/1/6 591/1/6 593/1/6
f 593/1/6 591/1/6 594/1/6
f 594/1/6 591/1/6 595/1/6
f 595/1/6 591/1/6 596/1/6
f 596/1/6 591/1/6 597/1/6
f 597/1/6 591/1/6 598/1/6
f 594/1/6 595/1/6 599/1/6
f 595/2/6 596/2/6 600/2/6
f 599/1/6 595/1/6 600/1/6
f 600/2/6 596/2/6 601/2/6
f 601/2/6 596/2/6 602/2/6
f 596/1/6 597/1/6 603/1/6
f 602/2/6 596/2/6 603/2/6
f 603/1/6 597/1/6 604/1/6
f 600/1/6 601/1/6 605/1/6
f 601/2/6 602/2/6 606/2/6
f 605/1/6 601/1/6 606/1/6
f 602/1/6 603/1/6 607/1/6
f 606/2/6 602/2/6 607/2/6
f 607/1/6 603/1/6 608/1/6
f 606/1/6 607/1/6 609/1/6
f 609/1/6 607/1/6 610/1/6
f 611/2/6 612/2/6 614/2/6
f 614/2/6 612/2/6 615/2/6
f 613/2/6 614/2/6 618/2/6
f 615/2/6 616/2/6 618/2/6
f 614/2/6 615/2/6 618/2/6
f 618/2/6 616/2/6 619/2/6
f 617/2/6 618/2/6 622/2/6
f 619/2/6 620/2/6 622/2/6
f 618/2/6 619/2/6 622/2/6
f 622/2/6 620/2/6 623/2/6
f 621/2/6 622/2/6 625/2/6
f 623/2/6 624/2/6 625/2/6
f 622/2/6 623/2/6 625/2/6
f 625/2/6 624/2/6 626/2/6
f 626/2/6 624/2/6 627/2/6
f 627/2/6 624/2/6 628/2/6
f 628/2/6 624/2/6 629/2/6
f 629/2/6 624/2/6 630/2/6
f 626/2/6 627/2/6 631/2/6
f 631/2/6 627/2/6 632/2/6
f 628/2/6 629/2/6 633/2/6
f 633/2/6 629/2/6 634/2/6
f 635/2/6 636/2/6 641/2/6
f 636/2/6 637/2/6 641/2/6
f 638/2/6 639/2/6 642/2/6
f 639/2/6 640/2/6 642/2/6
f 635/2/6 641/2/6 643/2/6
f 641/2/6 642/2/6 643/2/6
f 643/2/6 642/2/6 644/2/6
f 642/2/6 640/2/6 645/2/6
f 644/2/6 642/2/6 645/2/6
f 645/2/6 640/2/6 646/2/6
f 644/2/6 645/2/6 647/2/6
f 647/2/6 645/2/6 648/2/6
f 648/2/6 645/2/6 649/2/6
f 649/2/6 645/2/6 650/2/6
f 648/2/6 649/2/6 651/2/6
f 651/2/6 649/2/6 652/2/6
f 652/2/6 649/2/6 653/2/6
f 653/2/6 649/2/6 654/2/6
f 652/2/6 653/2/6 655/2/6
f 655/2/6 653/2/6 656/2/6
f 657/2/6 658/2/6 661/2/6
f 661/2/6 658/2/6 662/2/6
f 659/2/6 660/2/6 663/2/6
f 663/2/6 660/2/6 664/2/6
f 665/2/6 666/2/6 669/2/6
f 669/2/6 666/2/6 670/2/6
f 667/2/6 668/2/6 671/2/6
f 671/2/6 668/2/6 672/2/6
f 673/2/6 674/2/6 677/2/6
f 677/2/6 674/2/6 678/2/6
f 675/2/6 676/2/6 679/2/6
f 679/2/6 676/2/6 680/2/6
f 681/2/6 682/2/6 685/2/6
f 685/2/6 682/2/6 686/2/6
f 683/2/6 684/2/6 687/2/6
f 687/2/6 684/2/6 688/2/6
f 689/2/6 690/2/6 693/2/6
f 693/2/6 690/2/6 694/2/6
f 691/2/6 692/2/6 695/2/6
f 695/2/6 692/2/6 696/2/6
